<?xml version="1.0" encoding="UTF-8"?>
<svg xmlns="http://www.w3.org/2000/svg" xmlns:xlink="http://www.w3.org/1999/xlink" version="1.1" id="Capa_1" x="0px" y="0px" viewBox="0 0 511.995 511.995" style="enable-background:new 0 0 511.995 511.995;" xml:space="preserve" width="512" height="512">
<g>
	<g>
		<path style="fill:#F27182;" d="M274.772,60.427L274.772,60.427c-14.712-17.873-41.407-18.861-58.12-4.048l-5.327,4.297l-19.021,35&#10;&#9;&#9;&#9;l9.49,16.825l48.609,1.425l30.916-28.498L274.772,60.427z"/>
		<path style="fill:#ED5469;" d="M287.095,80.709c-0.557-1.063-0.109-0.262-8.423-14.662c-1.174-2.033-2.485-3.9-3.901-5.62&#10;&#9;&#9;&#9;c2.311,23.548-15.99,46.153-41.626,47.169l-33.373,1.322l16.219,28.755l39.833,2.004l7.759-2.004&#10;&#9;&#9;&#9;C286.355,130.082,298.997,103.399,287.095,80.709z"/>
		<path style="fill:#ED5469;" d="M128.074,58.279l-5.29-1.897c-16.534-14.657-42.84-13.851-57.647,3.473l2.687,37.696l62.125,22&#10;&#9;&#9;&#9;l17.18-23.125L128.074,58.279z"/>
		<path style="fill:#E63850;" d="M109.958,105.623c-25.812-1.022-44.552-22.405-44.821-45.769c-1.601,1.873-3.071,3.932-4.376,6.192&#10;&#9;&#9;&#9;c-8.314,14.4-7.866,13.599-8.424,14.662c-11.902,22.69,0.741,49.373,23.512,56.963l7.975,2.004l38.119-2.003l18.825-30.83&#10;&#9;&#9;&#9;L109.958,105.623z"/>
		<path style="fill:#F27182;" d="M190.145,265.763c19.223-6.446,30.569-26.927,26.506-46.8l0.839-5.538l-22.666-34.25l-22.833,7.25&#10;&#9;&#9;&#9;l-20,37.085l18.5,37.772L190.145,265.763z"/>
		<path style="fill:#ED5469;" d="M168.509,208.363l13.526-25.727l-34.906-3.461l-23.055,28.75l-1.289,11.034&#10;&#9;&#9;&#9;c-4.816,23.517,11.971,47.811,37.574,48.848c1.199,0.048,0.282,0.036,16.91,0.036c4.588,0,8.897-0.747,12.876-2.081&#10;&#9;&#9;&#9;C168.072,257.701,156.707,230.812,168.509,208.363z"/>
		<path style="fill:#FFEB7E;" d="M325.516,242.404h-11.238c-7.323,0-13.259,5.936-13.259,13.259v11.238&#10;&#9;&#9;&#9;c0,7.322,5.936,13.259,13.259,13.259h11.238c7.322,0,13.259-5.936,13.259-13.259v-11.238&#10;&#9;&#9;&#9;C338.775,248.341,332.838,242.404,325.516,242.404z"/>
		<path style="fill:#FFEB7E;" d="M363.273,134.173h-11.238c-7.323,0-13.259,5.936-13.259,13.259v11.238&#10;&#9;&#9;&#9;c0,7.322,5.936,13.259,13.259,13.259h11.238c7.322,0,13.259-5.936,13.259-13.259v-11.238&#10;&#9;&#9;&#9;C376.532,140.109,370.595,134.173,363.273,134.173z"/>
		<path style="fill:#FFEB7E;" d="M430.063,39.737h-11.238c-7.323,0-13.259,5.936-13.259,13.259v11.238&#10;&#9;&#9;&#9;c0,7.322,5.936,13.259,13.259,13.259h11.238c7.322,0,13.259-5.936,13.259-13.259V52.996&#10;&#9;&#9;&#9;C443.322,45.673,437.385,39.737,430.063,39.737z"/>
		<path style="fill:#FFEB7E;" d="M474.314,153.051h-11.238c-7.323,0-13.259,5.936-13.259,13.259v11.238&#10;&#9;&#9;&#9;c0,7.322,5.936,13.259,13.259,13.259h11.238c7.322,0,13.259-5.936,13.259-13.259V166.31&#10;&#9;&#9;&#9;C487.572,158.987,481.636,153.051,474.314,153.051z"/>
		<path style="fill:#FAA7B0;" d="M252.165,135.582l-31.511-1.248l-11.49,15.227l25.65,50.698h42.65l12.826-13.803&#10;&#9;&#9;&#9;C296.866,162.123,278.665,136.632,252.165,135.582z"/>
		<path style="fill:#F78B98;" d="M228.179,174.165l-17.357-27.491l-18.519,32.252v4.539l16.828,26.653&#10;&#9;&#9;&#9;c15.828,25.069,52.755,25.78,68.606,0.726c0.642-1.014,0.172-0.227,8.486-14.627c1.842-3.19,3.174-6.466,4.065-9.762&#10;&#9;&#9;&#9;C271.065,200.459,242.026,196.096,228.179,174.165z"/>
		<path style="fill:#F78B98;" d="M189.183,9.278h-20.109l-19.667,44.74l18.389,44.74h20.274l10.011-3.54l14.67-27.903&#10;&#9;&#9;&#9;C224.849,44.306,212.616,16.466,189.183,9.278z"/>
		<path style="fill:#F27182;" d="M189.183,9.278c-3.711-1.138-7.693-1.777-11.914-1.777c-16.628,0-15.711-0.012-16.91,0.036&#10;&#9;&#9;&#9;c-29.624,1.201-47.471,33.536-33.675,59.778l14.669,27.902h39l-14.669-27.902C153.554,44.242,165.892,16.468,189.183,9.278z"/>
		<path style="fill:#F27182;" d="M135.324,158.592l-60,13.337l-14.5,30.246l6.948,16.107v0c17.8,17.132,48.475,14.094,62.528-8.165&#10;&#9;&#9;&#9;l16.828-26.653L135.324,158.592z"/>
		<path style="fill:#ED5469;" d="M109.143,168.33l32.064-1.269l-17.05-30.802l-5.379-1.924l-31.512,1.247&#10;&#9;&#9;&#9;c-30.089,1.191-49.497,33.896-34.059,60.636c8.314,14.4,7.845,13.612,8.486,14.627c1.777,2.809,3.831,5.275,6.078,7.438&#10;&#9;&#9;&#9;C63.73,193.746,82.478,169.386,109.143,168.33z"/>
		<path style="fill:#A2E82D;" d="M172.694,431.212c-13.013,6.977-28.699,11.425-47.52,11.249&#10;&#9;&#9;&#9;c-20.433-0.191-30.17-25.427-15.075-39.2c11.532-10.522,27.105-21.863,47.311-31.071l11.748,5.402l9,29.736L172.694,431.212z"/>
		<path style="fill:#A2E82D;" d="M183.714,299.853c-24.268-2.983-46.487,1.076-65.084,10.375c-10.769,5.385-9.3,21.256,2.254,24.645&#10;&#9;&#9;&#9;c26.272,7.705,49.893-3.03,67.176-23.969C191.461,306.784,189.017,300.505,183.714,299.853z"/>
		<path style="fill:#A2E82D;" d="M91.588,388.654c-9.518-24.943-27.038-48.352-53.037-66.923c-5.633-4.024-13.467-0.172-13.83,6.741&#10;&#9;&#9;&#9;c-1.85,35.161,11.372,66.108,43.124,81.733C81.842,417.092,97.15,403.229,91.588,388.654z"/>
		<path style="fill:#FBC700;" d="M164.074,126.676l16.279-31.459l-4.385-8.207c-2.051-0.251-4.134-0.395-6.252-0.395&#10;&#9;&#9;&#9;c-28.199,0-51.058,22.859-51.058,51.058c0,28.199,22.859,51.058,51.058,51.058c3.269,0,6.462-0.32,9.56-0.907l1.077-8.649&#10;&#9;&#9;&#9;l-16.279-26.125V126.676z"/>
		<path style="fill:#FFE02F;" d="M175.969,87.01L175.969,87.01c-12.676,12.248-20.603,29.62-20.603,48.904&#10;&#9;&#9;&#9;c0,20.915,9.313,39.594,23.91,51.91l0,0c23.627-4.477,41.498-25.221,41.498-50.151C220.775,111.593,201.216,90.095,175.969,87.01z&#10;&#9;&#9;&#9;"/>
		<g>
			<path style="fill:#D3F39F;" d="M211.576,356.226c-20.904,3.237-38.864,8.997-54.174,15.977&#10;&#9;&#9;&#9;&#9;c-14.005,20.31-5.666,48.357,15.281,59.003c27.73-14.867,43.315-41.231,51.099-58.944&#10;&#9;&#9;&#9;&#9;C227.43,363.961,220.537,354.839,211.576,356.226z"/>
		</g>
	</g>
	<g>
		
			<circle style="fill:none;stroke:#000000;stroke-width:15;stroke-linecap:round;stroke-linejoin:round;stroke-miterlimit:10;" cx="169.649" cy="137.673" r="51.058"/>
		<path style="fill:none;stroke:#000000;stroke-width:15;stroke-linecap:round;stroke-linejoin:round;stroke-miterlimit:10;" d="&#10;&#9;&#9;&#9;M118.591,137.673c0-1.123,0.049-2.234,0.121-3.338L87.2,135.582c-30.089,1.191-49.497,33.896-34.059,60.636&#10;&#9;&#9;&#9;c8.314,14.4,7.845,13.612,8.486,14.627c15.852,25.054,52.778,24.343,68.606-0.726l16.828-26.653&#10;&#9;&#9;&#9;C130.195,175.129,118.591,157.76,118.591,137.673z"/>
		<path style="fill:none;stroke:#000000;stroke-width:15;stroke-linecap:round;stroke-linejoin:round;stroke-miterlimit:10;" d="&#10;&#9;&#9;&#9;M141.286,95.217c8.113-5.431,17.867-8.602,28.363-8.602c10.497,0,20.252,3.172,28.365,8.604l14.67-27.903&#10;&#9;&#9;&#9;c14.013-26.654-4.606-59.814-35.483-59.814c-16.628,0-15.711-0.012-16.91,0.036c-29.623,1.201-47.471,33.536-33.675,59.778&#10;&#9;&#9;&#9;L141.286,95.217z"/>
		<path style="fill:none;stroke:#000000;stroke-width:15;stroke-linecap:round;stroke-linejoin:round;stroke-miterlimit:10;" d="&#10;&#9;&#9;&#9;M287.028,80.709c-0.557-1.063-0.11-0.262-8.423-14.662c-13.376-23.168-43.699-25.905-62.021-9.668&#10;&#9;&#9;&#9;c-0.756,3.699-2.028,7.376-3.9,10.937l-14.67,27.903l-0.083-0.022c12.852,8.573,21.607,22.797,22.663,39.138l31.504,1.247&#10;&#9;&#9;&#9;c4.018,0.159,7.838,0.895,11.418,2.089C286.287,130.082,298.929,103.399,287.028,80.709z"/>
		<path style="fill:none;stroke:#000000;stroke-width:15;stroke-linecap:round;stroke-linejoin:round;stroke-miterlimit:10;" d="&#10;&#9;&#9;&#9;M216.583,218.963c-2.822-2.502-5.37-5.441-7.519-8.845l-16.828-26.653c0.04-0.02,0.078-0.041,0.118-0.061&#10;&#9;&#9;&#9;c-6.84,3.405-14.546,5.328-22.705,5.328c-8.163,0-15.872-1.925-22.714-5.332c0.043,0.021,0.084,0.044,0.127,0.065l-16.828,26.653&#10;&#9;&#9;&#9;c-2.148,3.403-4.695,6.34-7.516,8.842c-4.816,23.517,11.971,47.811,37.574,48.848c1.199,0.048,0.282,0.036,16.91,0.036&#10;&#9;&#9;&#9;C203.955,267.845,221.488,242.951,216.583,218.963z"/>
		<path style="fill:none;stroke:#000000;stroke-width:15;stroke-linecap:round;stroke-linejoin:round;stroke-miterlimit:10;" d="&#10;&#9;&#9;&#9;M141.286,95.217l-14.669-27.902c-1.873-3.563-3.144-7.239-3.9-10.934c-18.321-16.241-48.647-13.504-62.023,9.665&#10;&#9;&#9;&#9;c-8.314,14.4-7.866,13.6-8.424,14.662c-11.902,22.69,0.741,49.373,23.512,56.963c3.58-1.194,7.4-1.93,11.418-2.089l31.504-1.247&#10;&#9;&#9;&#9;c1.054-16.323,9.791-30.533,22.619-39.109L141.286,95.217z"/>
		<path style="fill:none;stroke:#000000;stroke-width:15;stroke-linecap:round;stroke-linejoin:round;stroke-miterlimit:10;" d="&#10;&#9;&#9;&#9;M325.448,242.404H314.21c-7.323,0-13.259,5.936-13.259,13.259v11.238c0,7.322,5.936,13.259,13.259,13.259h11.238&#10;&#9;&#9;&#9;c7.322,0,13.259-5.936,13.259-13.259v-11.238C338.707,248.341,332.771,242.404,325.448,242.404z"/>
		<path style="fill:none;stroke:#000000;stroke-width:15;stroke-linecap:round;stroke-linejoin:round;stroke-miterlimit:10;" d="&#10;&#9;&#9;&#9;M363.205,134.173h-11.238c-7.323,0-13.259,5.936-13.259,13.259v11.238c0,7.322,5.936,13.259,13.259,13.259h11.238&#10;&#9;&#9;&#9;c7.322,0,13.259-5.936,13.259-13.259v-11.238C376.464,140.109,370.527,134.173,363.205,134.173z"/>
		<path style="fill:none;stroke:#000000;stroke-width:15;stroke-linecap:round;stroke-linejoin:round;stroke-miterlimit:10;" d="&#10;&#9;&#9;&#9;M429.995,39.737h-11.238c-7.323,0-13.259,5.936-13.259,13.259v11.238c0,7.322,5.936,13.259,13.259,13.259h11.238&#10;&#9;&#9;&#9;c7.322,0,13.259-5.936,13.259-13.259V52.996C443.254,45.673,437.318,39.737,429.995,39.737z"/>
		<path style="fill:none;stroke:#000000;stroke-width:15;stroke-linecap:round;stroke-linejoin:round;stroke-miterlimit:10;" d="&#10;&#9;&#9;&#9;M474.246,153.051h-11.238c-7.323,0-13.259,5.936-13.259,13.259v11.238c0,7.322,5.936,13.259,13.259,13.259h11.238&#10;&#9;&#9;&#9;c7.322,0,13.259-5.936,13.259-13.259V166.31C487.505,158.987,481.568,153.051,474.246,153.051z"/>
		<path style="fill:none;stroke:#000000;stroke-width:15;stroke-linecap:round;stroke-linejoin:round;stroke-miterlimit:10;" d="&#10;&#9;&#9;&#9;M125.461,244.281c-15.095,49.357-28.264,113.091-28.264,185.237v74.977"/>
		<path style="fill:none;stroke:#000000;stroke-width:15;stroke-linecap:round;stroke-linejoin:round;stroke-miterlimit:10;" d="&#10;&#9;&#9;&#9;M91.52,388.654c-7.468-19.57-22.561-45.154-53.037-66.923c-5.633-4.024-13.466-0.172-13.83,6.741&#10;&#9;&#9;&#9;c-1.14,21.674,2.759,61.871,43.124,81.733C81.775,417.092,97.082,403.229,91.52,388.654z"/>
		<path style="fill:none;stroke:#000000;stroke-width:15;stroke-linecap:round;stroke-linejoin:round;stroke-miterlimit:10;" d="&#10;&#9;&#9;&#9;M118.563,310.228c14.46-7.231,36.393-13.901,65.084-10.375c5.303,0.652,7.747,6.93,4.346,11.051&#10;&#9;&#9;&#9;c-10.663,12.919-33.858,33.741-67.176,23.969C109.263,331.485,107.794,315.613,118.563,310.228z"/>
		<path style="fill:none;stroke:#000000;stroke-width:15;stroke-linecap:round;stroke-linejoin:round;stroke-miterlimit:10;" d="&#10;&#9;&#9;&#9;M267.772,221.514c3.781-2.798,7.159-6.34,9.899-10.669c0.642-1.014,0.172-0.227,8.487-14.627&#10;&#9;&#9;&#9;c15.438-26.74-3.97-59.444-34.059-60.636l-31.511-1.248c0.071,1.105,0.121,2.216,0.121,3.339&#10;&#9;&#9;&#9;c0,20.087-11.605,37.457-28.471,45.792l16.828,26.653c5.897,9.339,14.723,15.293,24.296,17.798"/>
		<path style="fill:none;stroke:#000000;stroke-width:15;stroke-linecap:round;stroke-linejoin:round;stroke-miterlimit:10;" d="&#10;&#9;&#9;&#9;M211.749,394.314c5.186-7.854,9.102-15.539,11.965-22.053c3.648-8.301-3.245-17.423-12.206-16.036&#10;&#9;&#9;&#9;c-48.479,7.508-81.209,28.542-101.477,47.035c-15.095,13.773-5.357,39.009,15.075,39.2c27.243,0.255,47.924-9.172,63.423-21.951"/>
	</g>
</g>















</svg>
