<?xml version="1.0" encoding="utf-8"?>
<svg viewBox="0 0 1122 36" xmlns="http://www.w3.org/2000/svg" xmlns:bx="https://boxy-svg.com">
  <defs>
    <bx:grid x="0" y="0" width="3" height="3.005"/>
    <linearGradient gradientUnits="userSpaceOnUse" x1="121.05" y1="9.63" x2="121.05" y2="36.432" id="gradient-1" gradientTransform="matrix(1, 0, 0, 1, 37.950008, -0.125175)">
      <stop offset="0" style="stop-color: rgb(187, 227, 77);"/>
      <stop offset="1" style="stop-color: rgb(138, 173, 44);"/>
    </linearGradient>
    <linearGradient gradientUnits="userSpaceOnUse" x1="121.05" y1="9.63" x2="121.05" y2="36.432" id="gradient-2" gradientTransform="matrix(1, 0, 0, 1, 232.870255, 0.047952)">
      <stop offset="0" style="stop-color: rgb(187, 227, 77);"/>
      <stop offset="1" style="stop-color: rgb(131, 190, 73);"/>
    </linearGradient>
    <linearGradient gradientUnits="userSpaceOnUse" x1="121.05" y1="9.63" x2="121.05" y2="36.432" id="gradient-5" gradientTransform="matrix(1, 0, 0, 1, 1028.388306, -0.360444)">
      <stop offset="0" style="stop-color: rgb(187, 227, 77);"/>
      <stop offset="1" style="stop-color: rgb(131, 190, 73);"/>
    </linearGradient>
    <linearGradient gradientUnits="userSpaceOnUse" x1="121.05" y1="9.63" x2="121.05" y2="36.432" id="gradient-7" gradientTransform="matrix(1, 0, 0, 1, 93.351257, -1.061443)">
      <stop offset="0" style="stop-color: rgb(187, 227, 77);"/>
      <stop offset="1" style="stop-color: rgb(131, 190, 73);"/>
    </linearGradient>
    <linearGradient gradientUnits="userSpaceOnUse" x1="121.05" y1="9.63" x2="121.05" y2="36.432" id="gradient-3" gradientTransform="matrix(1, 0, 0, 1, 582.870224, 0.04795)">
      <stop offset="0" style="stop-color: rgb(182, 227, 77);"/>
      <stop offset="1" style="stop-color: rgb(131, 190, 73);"/>
    </linearGradient>
    <linearGradient gradientUnits="userSpaceOnUse" x1="121.05" y1="9.63" x2="121.05" y2="36.432" id="gradient-4" gradientTransform="matrix(1, 0, 0, 1, 387.949978, -0.125177)">
      <stop offset="0" style="stop-color: rgb(187, 227, 77);"/>
      <stop offset="1" style="stop-color: rgb(138, 173, 44);"/>
    </linearGradient>
    <linearGradient gradientUnits="userSpaceOnUse" x1="121.05" y1="9.63" x2="121.05" y2="36.432" id="gradient-6" gradientTransform="matrix(1, 0, 0, 1, 789.75, -0.125178)">
      <stop offset="0" style="stop-color: rgb(187, 227, 77);"/>
      <stop offset="1" style="stop-color: rgb(138, 173, 44);"/>
    </linearGradient>
  </defs>
  <path stroke="rgb(255,0,0)" d="M 384.531 14.13 C 386.706 14.206 385.853 18.841 387.821 19.77 C 390.231 20.908 394.765 17.006 395.811 19.457 C 397.564 23.564 397.072 30.22 393.304 32.618 C 387.193 36.507 378.914 34.37 371.683 34.811 C 361.774 35.415 351.796 34.781 341.916 35.751 C 341.535 35.789 341.174 35.901 340.825 36.06 L 321.486 36.06 C 316.319 34.863 310.074 33.717 310.425 29.327 C 310.896 23.437 320.812 23.651 326.249 21.337 C 331.02 19.306 335.856 17.147 340.976 16.324 C 342.152 16.135 342.632 18.767 343.796 18.517 C 346.147 18.013 347.346 14.537 349.749 14.444 C 353.33 14.305 356.36 17.615 359.933 17.89 C 362.091 18.056 363.896 15.424 366.043 15.697 C 367.73 15.911 368.109 19.288 369.803 19.144 C 374.971 18.706 379.348 13.95 384.531 14.13 Z M 244.019 18.173 C 246.036 18.991 245.326 22.916 247.309 23.813 C 252.355 26.095 262.688 19.331 267.154 19.248 C 269.921 19.197 272.599 20.414 275.15 21.487 C 277.3 22.391 278.123 26.42 280.43 26.078 C 287.384 25.047 296.469 15.772 300.947 21.192 C 302.265 22.788 302.226 25.198 302.226 27.268 C 302.226 28.308 299.493 29.673 300.513 29.875 C 302.879 30.343 308.421 30.043 310.309 32.328 C 310.82 32.946 311.372 34.453 311.553 36.06 L 274.946 36.06 C 274.646 35.741 274.319 35.471 273.929 35.315 C 271.216 34.229 268.64 32.363 265.72 32.236 C 261.845 32.067 257.968 33.204 254.298 34.46 C 253.442 34.753 252.768 35.365 252.141 36.06 L 155.705 36.06 C 155.717 35.844 155.741 35.63 155.779 35.419 C 157.173 27.611 165.843 32.229 170.815 31.147 C 171.55 30.987 169.795 29.993 169.541 29.285 C 168.961 27.667 168.253 25.76 168.902 24.168 C 169.587 22.487 171.337 21.224 173.059 20.65 C 176.521 19.496 180.324 22.47 183.933 21.929 C 186.87 21.488 189.293 19.024 192.248 18.731 C 195.027 18.456 197.759 19.674 200.464 20.367 C 201.617 20.663 202.496 23.453 203.284 22.56 C 209.032 16.046 212.238 21.033 219.421 21.933 C 221.283 22.166 226.925 18.316 229.216 18.461 C 231.749 18.622 233.978 20.769 236.512 20.635 C 238.149 20.548 240.407 16.709 244.019 18.173 Z" style="stroke: rgb(129, 151, 57); stroke-width: 0px; fill: rgb(125, 161, 27);"/>
  <path style="stroke: rgb(0, 0, 0); stroke-width: 0px; fill: url(#gradient-2);" d="M 180.768 36.06 C 180.768 36.06 215.355 22.676 304.724 24.562 C 343.7 25.385 450.537 25.34 475 36 C 432.6 36 180.8 36 180.8 36 L 180.768 36.06 Z"/>
  <path style="stroke-width: 0px; fill: url(#gradient-1);" d="M 0 36.06 C 0 36.06 171.084 6.01 271.2 36 C 240 36 0 36 0 36 L 0 36.06 Z"/>
  <path style="stroke: rgb(0, 0, 0); stroke-width: 0px; fill: url(#gradient-5);" d="M 976.884 36.06 C 976.884 36.06 1032.631 22.154 1122 24.04 C 1121.984 30 1122 30.05 1121.984 36 C 1102.884 36 976.9 36 976.9 36 Z"/>
  <path style="stroke-width: 0px; fill: url(#gradient-7);" d="M 64.56 36.06 C 64.56 36.06 22.596 24.04 0 24.04 C 0 30.05 0 30.05 0 36 C 9.7 36 64.56 36.06 64.6 36 L 64.6 36 Z"/>
  <path stroke="rgb(255,0,0)" d="M 824.521 32.618 C 818.41 36.507 810.131 34.37 802.9 34.811 C 792.991 35.415 783.013 34.781 773.133 35.751 C 772.752 35.789 772.391 35.901 772.042 36.06 L 752.703 36.06 C 747.536 34.863 741.291 33.717 741.642 29.327 C 741.72 28.347 742.06 27.537 742.597 26.855 C 741.423 26.831 740.257 26.826 739.196 26.909 C 737.259 27.06 734.97 27.66 733.132 27.965 C 732.446 28.839 730.928 29.716 731.73 29.875 C 734.096 30.343 739.638 30.043 741.526 32.328 C 742.037 32.946 742.589 34.453 742.77 36.06 L 706.163 36.06 C 705.863 35.741 705.536 35.471 705.146 35.315 C 702.433 34.229 699.857 32.363 696.937 32.236 C 693.062 32.067 689.185 33.204 685.515 34.46 C 684.659 34.753 683.985 35.365 683.358 36.06 L 586.922 36.06 C 586.934 35.844 586.958 35.63 586.996 35.419 C 588.39 27.611 597.06 32.229 602.032 31.147 C 602.767 30.987 601.012 29.993 600.758 29.285 C 600.178 27.667 599.47 25.76 600.119 24.168 C 600.804 22.487 602.554 21.224 604.276 20.65 C 607.738 19.496 611.541 22.47 615.15 21.929 C 618.087 21.488 620.51 19.024 623.465 18.731 C 626.244 18.456 628.976 19.674 631.681 20.367 C 632.834 20.663 633.713 23.453 634.501 22.56 C 640.249 16.046 643.455 21.033 650.638 21.933 C 652.5 22.166 658.142 18.316 660.433 18.461 C 662.966 18.622 665.195 20.769 667.729 20.635 C 669.366 20.548 671.624 16.709 675.236 18.173 C 677.253 18.991 676.543 22.916 678.526 23.813 C 683.572 26.095 693.905 19.331 698.371 19.248 C 701.138 19.197 703.816 20.414 706.367 21.487 C 708.517 22.391 709.34 26.42 711.647 26.078 C 718.601 25.047 727.686 15.772 732.164 21.192 C 732.318 21.379 732.454 21.577 732.573 21.784 C 734.221 21.506 736.326 21.237 737.989 21.117 C 740.534 20.934 743.525 21.307 745.711 21.117 C 747.498 20.962 749.128 20.355 750.296 20.273 C 751.118 20.214 751.694 20.215 752.227 20.393 C 752.694 20.549 753.076 20.745 753.373 21.178 C 753.575 21.472 753.789 21.954 753.934 22.452 C 755.211 22.133 756.421 21.782 757.466 21.337 C 759.499 20.471 761.544 19.583 763.617 18.784 C 764.331 18.188 765.582 17.74 766.64 17.496 C 767.836 17.22 769.325 17.151 770.501 17.375 C 771.605 17.585 772.326 18.569 773.518 18.702 C 774.941 18.861 777.195 18.233 778.585 17.858 C 779.704 17.556 780.344 16.924 781.361 16.772 C 782.46 16.607 783.574 16.673 784.98 17.013 C 786.813 17.456 789.242 19.145 791.496 19.667 C 793.286 20.083 795.467 20.282 797.23 20.235 C 797.879 19.646 798.701 19.051 799.433 18.607 C 800.482 17.971 801.5 17.37 802.812 17.159 C 803.513 17.046 804.392 17.021 805.277 17.07 C 806.876 16.712 809.383 16.628 811.163 16.772 C 812.871 16.909 814.227 17.802 815.869 17.858 C 816.004 17.863 816.143 17.861 816.285 17.854 C 816.659 17.769 817.005 17.733 817.349 17.731 C 818.814 17.484 820.403 16.973 821.299 17.013 C 822.048 17.046 822.311 17.198 822.867 17.496 C 823.292 17.723 823.865 18.053 824.35 18.444 C 826.301 18.543 828.88 18.872 830.491 19.424 C 832.622 20.154 834.482 22.276 835.92 22.802 C 836.896 23.159 837.66 22.784 838.333 23.044 C 838.944 23.279 839.51 23.696 839.842 24.19 C 840.172 24.682 840.422 25.364 840.324 26 C 840.211 26.74 839.671 27.873 838.937 28.353 C 838.135 28.877 836.99 28.778 835.558 28.835 C 833.572 28.914 829.672 28.41 827.836 28.473 C 827.691 28.478 827.555 28.489 827.425 28.505 C 826.878 30.234 825.928 31.723 824.521 32.618 Z" style="stroke: rgb(129, 151, 57); stroke-width: 0px; fill: rgb(125, 161, 27);"/>
  <path style="stroke: rgb(0, 0, 0); stroke-width: 0px; fill: url(#gradient-3);" d="M 530.768 36.06 C 530.768 36.06 565.355 22.676 654.724 24.562 C 693.7 25.385 800.537 25.34 825 36 C 782.6 36 530.8 36 530.8 36 L 530.768 36.06 Z"/>
  <path style="stroke-width: 0px; fill: url(#gradient-4);" d="M 350 36.06 C 350 36.06 521.084 6.01 621.2 36 C 590 36 350 36 350 36 L 350 36.06 Z"/>
  <path style="stroke-width: 0px; fill: url(#gradient-6);" d="M 751.8 36.06 C 751.8 36.06 922.884 6.01 1023 36 C 991.8 36 751.8 36 751.8 36 L 751.8 36.06 Z"/>
</svg>